<svg width="1080" height="1080" viewBox="0 0 1080 1080" fill="none" xmlns="http://www.w3.org/2000/svg">
<rect width="1080" height="1080" rx="540" fill="#1A2942"/>
<path d="M509.576 416.767L454.185 320.826V449.239L539.765 534.82L625.346 449.239V320.826L569.954 416.767V303.114L601.729 248.077L539.765 140.752L477.801 248.077L509.576 303.114V416.767Z" fill="#F3EFE7"/>
<path d="M539.793 940V742.214H497.807V814.539C450.575 848.487 405.968 902.116 404 940H539.793Z" fill="#F3EFE7"/>
<path d="M539.793 940V742.214H581.779V814.539C629.011 848.487 673.618 902.116 675.586 940H539.793Z" fill="#F3EFE7"/>
<path d="M445.328 653.139C445.824 653.11 446.323 653.094 446.826 653.094C460.904 653.094 472.317 664.482 472.317 678.531C472.317 692.579 460.904 703.967 446.826 703.967C446.323 703.967 445.824 703.951 445.328 703.922V777.286L485.813 736.886L497.809 736.929V801.254H539.793V552.843H521.8L445.328 476.532V653.139ZM493.31 590.249C513.184 590.249 529.297 606.328 529.297 626.161C529.297 645.994 513.184 662.072 493.31 662.072C473.435 662.072 457.323 645.993 457.323 626.161C457.323 606.328 473.435 590.25 493.31 590.249Z" fill="#F3EFE7"/>
<path d="M634.258 653.139C633.762 653.11 633.263 653.094 632.76 653.094C618.682 653.094 607.269 664.482 607.269 678.531C607.269 692.579 618.682 703.967 632.76 703.967C633.263 703.967 633.762 703.951 634.258 703.922V777.286L593.772 736.886L581.777 736.929V801.254H539.793V552.843H557.786L634.258 476.532V653.139ZM586.276 590.249C566.402 590.249 550.289 606.328 550.289 626.161C550.289 645.994 566.401 662.072 586.276 662.072C606.151 662.072 622.263 645.993 622.263 626.161C622.263 606.328 606.151 590.25 586.276 590.249Z" fill="#A66A3F"/>
</svg>
